<svg version="1.1" xmlns="http://www.w3.org/2000/svg" viewBox="0 0 2099.5765718607736 755.130742122954" width="6298.729715582321" height="2265.392226368862">
  <!-- svg-source:excalidraw -->
  
  <defs>
    <style class="style-fonts">
      @font-face {
        font-family: "Virgil";
        src: url("https://excalidraw.com/Virgil.woff2");
      }
      @font-face {
        font-family: "Cascadia";
        src: url("https://excalidraw.com/Cascadia.woff2");
      }
    </style>
    
  </defs>
  <rect x="0" y="0" width="2099.5765718607736" height="755.130742122954" fill="#ffffff"></rect><g stroke-linecap="round" transform="translate(1590.2369599501774 15.23033542896519) rotate(0 182.42227570542548 44.72630550216718)"><path d="M1.31 0.21 C84.03 -0.97, 166.6 -0.38, 367.31 -2.11 M0.16 -1.02 C109.51 2.46, 217.13 1.34, 365.63 -0.91 M366.4 -2.49 C366.84 32.18, 365.76 60.14, 365.03 91.18 M366.71 -0.5 C363.37 29.35, 366.98 56.64, 363.41 90.64 M366.09 89.62 C227.62 92.6, 96.12 91.37, -0.54 90.02 M365.22 89.47 C239.02 93.69, 115.39 93.67, 1.23 90.2 M3.71 85.55 C4.49 65.14, -1.82 43.33, 1.06 3.41 M1.23 90.29 C-1.37 55.36, 1.39 25.52, 1.91 0.95" stroke="#364fc7" stroke-width="1" fill="none"></path></g><g stroke-linecap="round" transform="translate(406.73934196789935 13.028246445319382) rotate(0 131.51548733477068 54.933603709567706)"><path d="M0.86 -2.41 C96.19 0.9, 189.61 -0.29, 264.83 -3.16 M0.85 0.79 C98.82 4.03, 197.41 3.23, 264.33 -0.74 M266.43 3.53 C260.67 37.92, 266.17 79.83, 261.44 109.96 M264.73 -0.69 C260.9 32.14, 260.96 61.52, 263.79 108.46 M266.15 111.76 C198.02 114.91, 136.73 115.21, 2.41 109.18 M264.52 111.4 C204.06 112.14, 145.27 113.97, -0.57 110 M1.61 108.95 C-3.29 88.84, -0.94 64.47, -1.43 -3 M1.2 110.44 C-1.81 81.12, -0.97 54.3, -1.34 0.73" stroke="#364fc7" stroke-width="1" fill="none"></path></g><g transform="translate(429.8445146241306 54.29782507228265) rotate(0 106.640625 16.800000000000182)"><text x="0" y="0" font-family="Cascadia, Segoe UI Emoji" font-size="28px" fill="#364fc7" text-anchor="start" style="white-space: pre;" direction="ltr" dominant-baseline="text-before-edge">Vault Factory</text></g><g stroke-linecap="round"><g transform="translate(189.20685611645115 68.52892227751727) rotate(0 87.3446357525537 4.192378251622813)"><path d="M2.91 -0.26 C57.49 7.39, 123.04 9.06, 173.1 8.56 M1.59 1.23 C49.79 4.86, 104.9 2.88, 169.15 6.13" stroke="#364fc7" stroke-width="1" fill="none"></path></g><g transform="translate(189.20685611645115 68.52892227751727) rotate(0 87.3446357525537 4.192378251622813)"><path d="M143.55 15.21 C147.55 14.87, 162.69 11.39, 171.22 9.46 M142.23 16.69 C147.26 14.62, 159.43 8.25, 167.27 7.02" stroke="#364fc7" stroke-width="1" fill="none"></path></g><g transform="translate(189.20685611645115 68.52892227751727) rotate(0 87.3446357525537 4.192378251622813)"><path d="M144.22 -5.3 C148.22 1.6, 163.12 5.37, 171.22 9.46 M142.9 -3.82 C148.06 0.28, 160.03 0.09, 167.27 7.02" stroke="#364fc7" stroke-width="1" fill="none"></path></g></g><mask></mask><g transform="translate(206.10439883449385 28.614682139663273) rotate(0 58.59375 12)"><text x="0" y="0" font-family="Cascadia, Segoe UI Emoji" font-size="20px" fill="#364fc7" text-anchor="start" style="white-space: pre;" direction="ltr" dominant-baseline="text-before-edge">newVault()</text></g><g stroke-linecap="round" transform="translate(373.62896595648306 351.5280748823325) rotate(0 172.76998425634724 54.933603709567706)"><path d="M2.39 2.47 C98.78 -1.96, 189.95 -0.93, 346.04 -0.94 M0.06 0.53 C106.17 -1.39, 213.48 -0.62, 345.53 -0.47 M348.74 2.4 C345.68 23.36, 342.91 49.76, 346.16 107.2 M347.52 1.77 C346.87 38.83, 346.76 74.66, 347.35 108.41 M344.43 109.63 C245.61 109.74, 142.19 109.65, 0.68 107.5 M345.54 110.65 C214.01 110.91, 84.72 112.23, 1.23 110.43 M-2.71 113.29 C0.9 81.54, 0.85 53.98, -0.71 -3.5 M-0.3 110.83 C2.56 69.66, 1.69 32.69, 0.82 0.13" stroke="#364fc7" stroke-width="1" fill="none"></path></g><g transform="translate(396.9332171238515 392.9967320204314) rotate(0 155.859375 16.800000000000182)"><text x="0" y="0" font-family="Cascadia, Segoe UI Emoji" font-size="28px" fill="#364fc7" text-anchor="start" style="white-space: pre;" direction="ltr" dominant-baseline="text-before-edge">VeloPositionManager</text></g><g stroke-linecap="round"><g transform="translate(527.0312259326408 339.09471695948923) rotate(0 -1.0032543089791375 -75.04248203054522)"><path d="M-3.84 2.68 C-1.87 -61.68, -2 -124.23, 1.13 -152.77 M0.83 -0.38 C0.97 -52.74, -0.25 -104.98, 1.84 -151.34" stroke="#364fc7" stroke-width="1" fill="none"></path></g><g transform="translate(527.0312259326408 339.09471695948923) rotate(0 -1.0032543089791375 -75.04248203054522)"><path d="M-17.27 -23.06 C-8.34 -16.04, -5 -7.14, -3.52 2.86 M-12.6 -26.13 C-10.31 -16.64, -8.54 -7.16, -2.81 4.28" stroke="#364fc7" stroke-width="1" fill="none"></path></g><g transform="translate(527.0312259326408 339.09471695948923) rotate(0 -1.0032543089791375 -75.04248203054522)"><path d="M3.24 -22.57 C4.09 -15.63, -0.66 -6.92, -3.52 2.86 M7.92 -25.64 C3.23 -16.64, -1.98 -7.33, -2.81 4.28" stroke="#364fc7" stroke-width="1" fill="none"></path></g><g transform="translate(527.0312259326408 339.09471695948923) rotate(0 -1.0032543089791375 -75.04248203054522)"><path d="M7.53 -120.21 C7.83 -135.49, 3.63 -148.99, 2.16 -151.17 M12.2 -123.28 C8.25 -133.44, 3.51 -143.32, 2.87 -149.75" stroke="#364fc7" stroke-width="1" fill="none"></path></g><g transform="translate(527.0312259326408 339.09471695948923) rotate(0 -1.0032543089791375 -75.04248203054522)"><path d="M-12.99 -120.74 C-4.59 -135.92, -0.71 -149.22, 2.16 -151.17 M-8.31 -123.81 C-5.29 -133.47, -3.04 -143.17, 2.87 -149.75" stroke="#364fc7" stroke-width="1" fill="none"></path></g></g><mask></mask><g stroke-linecap="round"><g transform="translate(729.7412099469958 408.87767144038025) rotate(0 336.6313856809985 -0.07100191086556151)"><path d="M0.13 -1.5 C247.58 1.7, 495.54 0.95, 672.89 -0.17 M-0.6 -0.37 C189.76 2.34, 379.17 1.69, 673.86 -1.16" stroke="#364fc7" stroke-width="1" fill="none"></path></g><g transform="translate(729.7412099469958 408.87767144038025) rotate(0 336.6313856809985 -0.07100191086556151)"><path d="M646.08 5.59 C656.36 5.85, 667.96 0.91, 670.75 0.5 M644.26 8.41 C654.68 8.18, 662.74 4.2, 673.18 -1.98" stroke="#364fc7" stroke-width="1" fill="none"></path></g><g transform="translate(729.7412099469958 408.87767144038025) rotate(0 336.6313856809985 -0.07100191086556151)"><path d="M645.91 -14.94 C656.33 -7.14, 667.99 -4.55, 670.75 0.5 M644.09 -12.11 C654.56 -6.58, 662.67 -4.79, 673.18 -1.98" stroke="#364fc7" stroke-width="1" fill="none"></path></g></g><mask></mask><g transform="translate(1019.1651690476111 372.9440965349768) rotate(0 58.59375000000006 12)"><text x="0" y="0" font-family="Cascadia, Segoe UI Emoji" font-size="20px" fill="#364fc7" text-anchor="start" style="white-space: pre;" direction="ltr" dominant-baseline="text-before-edge">IVeloVault</text></g><g stroke-linecap="round"><g transform="translate(49.62265639846669 404.5131222556183) rotate(0 149.40359757041037 0.059945479390535183)"><path d="M-0.56 -0.01 C81.23 -4.12, 163.23 -0.47, 299.37 1.47 M0.12 0.23 C96.6 2.22, 196.46 2.63, 298.47 1" stroke="#364fc7" stroke-width="1" fill="none"></path></g><g transform="translate(49.62265639846669 404.5131222556183) rotate(0 149.40359757041037 0.059945479390535183)"><path d="M269.62 11.53 C276.9 5.39, 284.29 7.53, 301.67 3.4 M270.55 11.86 C278.35 9.04, 290.65 6.26, 300.45 2.77" stroke="#364fc7" stroke-width="1" fill="none"></path></g><g transform="translate(49.62265639846669 404.5131222556183) rotate(0 149.40359757041037 0.059945479390535183)"><path d="M269.42 -8.99 C276.43 -9.44, 283.87 -1.62, 301.67 3.4 M270.34 -8.66 C278.07 -4.74, 290.44 -0.77, 300.45 2.77" stroke="#364fc7" stroke-width="1" fill="none"></path></g></g><mask></mask><g transform="translate(10 356.8428678614846) rotate(0 169.921875 12)"><text x="0" y="0" font-family="Cascadia, Segoe UI Emoji" font-size="20px" fill="#364fc7" text-anchor="start" style="white-space: pre;" direction="ltr" dominant-baseline="text-before-edge">open/close/liquidate/reinvest</text></g><g stroke-linecap="round" transform="translate(1602.3686837652378 597.884716073595) rotate(0 96.91805517198009 63.681312828964565)"><path d="M-1.83 2.06 C61.27 5.3, 117.29 1.55, 192.21 0.32 M1.74 1.41 C63.14 0.36, 121.74 0.46, 193.14 0.73 M191.66 1.3 C190.28 49.4, 192.96 97.1, 190.5 124.78 M192.89 0.91 C191.55 42.67, 190.05 81.43, 194.27 127.83 M196.83 129.49 C114.85 128.53, 43.82 123.38, 2.5 124.66 M192.22 126.73 C138.82 130.18, 85.18 127.25, -0.08 126.65 M1.77 128.59 C1.9 87.76, 2.89 43.21, -2.05 0.37 M-1.86 128.93 C-0.93 91, 0.47 51.01, 0.78 0.49" stroke="#364fc7" stroke-width="1" fill="none"></path></g><g transform="translate(1637.7444702536152 641.5264876357833) rotate(0 24.9697265625 17.047168233036246)"><text x="0" y="0" font-family="Cascadia, Segoe UI Emoji" font-size="28.411947055060764px" fill="#364fc7" text-anchor="start" style="white-space: pre;" direction="ltr" dominant-baseline="text-before-edge">AMM</text></g><g stroke-linecap="round" transform="translate(1637.3522075859912 617.7681164650248) rotate(0 93.46736097893472 63.681312828964565)"><path d="M-3.6 1.69 L190.6 -0.58 L184.15 128.59 L2.74 127" stroke="none" stroke-width="0" fill="#ffffff"></path><path d="M1.14 -1.36 C64.08 -1.92, 132.02 -4.91, 188.39 3.48 M-0.58 1.87 C68.61 -2.58, 140.42 -4.77, 186.76 -1.09 M187.92 -2.43 C182.52 39.77, 186.89 81.09, 190.05 125.46 M185.44 -1.54 C187.38 44.44, 188.81 88.81, 185.78 128.86 M189.47 125.63 C123.4 127.85, 54.16 127.05, 1.92 124.14 M187.72 125.39 C136.73 128.44, 87.51 129.29, -1.57 128.25 M3.06 130.13 C-3.37 85.63, -1.5 42.12, -1.88 -3.72 M-0.18 126.3 C2.79 79.64, 2.42 30.24, 0.3 -1.57" stroke="#364fc7" stroke-width="1" fill="none"></path></g><g transform="translate(1668.1371229539006 667.0082170676797) rotate(0 74.9091796875 17.047168233036246)"><text x="0" y="0" font-family="Cascadia, Segoe UI Emoji" font-size="28.411947055060764px" fill="#364fc7" text-anchor="start" style="white-space: pre;" direction="ltr" dominant-baseline="text-before-edge">Velodrome</text></g><g stroke-linecap="round"><g transform="translate(1704.0498889321154 480.1656997326854) rotate(0 3.0171993442827443 50.50635293975756)"><path d="M0.62 -2.67 C1.12 30.93, 2.99 58.87, 5.41 102.04 M1.81 -1.46 C-0.15 39.51, 1.41 80.35, 1.69 103.68" stroke="#364fc7" stroke-width="1" fill="none"></path></g><g transform="translate(1704.0498889321154 480.1656997326854) rotate(0 3.0171993442827443 50.50635293975756)"><path d="M-8.47 73.02 C-4.99 86.6, -0.75 94.53, 5.23 102.53 M-7.28 74.23 C-5.22 85.54, -0.15 96.8, 1.51 104.18" stroke="#364fc7" stroke-width="1" fill="none"></path></g><g transform="translate(1704.0498889321154 480.1656997326854) rotate(0 3.0171993442827443 50.50635293975756)"><path d="M12.05 72.64 C10.06 86.35, 8.85 94.38, 5.23 102.53 M13.24 73.84 C7.22 85.46, 4.22 96.87, 1.51 104.18" stroke="#364fc7" stroke-width="1" fill="none"></path></g></g><mask></mask><g stroke-linecap="round"><g transform="translate(682.8974330081872 68.55908568829727) rotate(0 114.02733633432626 -0.12186854376614065)"><path d="M-2.62 0.74 C69.28 5.42, 138.46 -0.42, 230.68 -0.44 M-0.74 1.06 C51.82 -3.3, 104.49 -2.7, 226.75 -2.8" stroke="#364fc7" stroke-width="1" fill="none"></path></g><g transform="translate(682.8974330081872 68.55908568829727) rotate(0 114.02733633432626 -0.12186854376614065)"><path d="M195.49 8.34 C207.83 8.55, 217.09 -0.59, 229.74 -0.67 M197.7 8.72 C203.58 4.38, 209.74 3.3, 225.14 -3.44" stroke="#364fc7" stroke-width="1" fill="none"></path></g><g transform="translate(682.8974330081872 68.55908568829727) rotate(0 114.02733633432626 -0.12186854376614065)"><path d="M195.48 -12.18 C208.07 -5.81, 217.33 -8.79, 229.74 -0.67 M197.69 -11.8 C203.93 -11.38, 210.08 -7.68, 225.14 -3.44" stroke="#364fc7" stroke-width="1" fill="none"></path></g></g><mask></mask><g stroke-linecap="round" transform="translate(408.9342029313275 613.1094967757308) rotate(0 113.50793110008385 54.933603709567706)"><path d="M1.85 -2.76 C73.91 -5.65, 146.95 -3.9, 226.28 0.63 M0.04 0.4 C50.91 -0.36, 100.04 -0.87, 228.51 0.94 M227.03 3.43 C228.54 18.63, 227 40.8, 228.13 111.95 M228.07 -1.32 C226.16 31.67, 227.69 63.15, 228.45 109.05 M225.07 106.85 C157.88 111.51, 84.48 109.84, 0.52 108.88 M225.86 109.58 C162.47 105.32, 94.98 105.3, -0.99 108.6 M1.7 109.48 C-0.04 70.77, -2.29 38.98, 2.77 -1.8 M-2 110.5 C1.01 85.51, 4.06 61.12, 0.16 -1.82" stroke="#364fc7" stroke-width="1" fill="none"></path></g><g transform="translate(432.2384540986959 654.8013631535869) rotate(0 90.234375 16.800000000000182)"><text x="0" y="0" font-family="Cascadia, Segoe UI Emoji" font-size="28px" fill="#364fc7" text-anchor="start" style="white-space: pre;" direction="ltr" dominant-baseline="text-before-edge">LendingPool</text></g><g mask="url(#mask-z4MH7Elho6B5CkMLDZ4_b)" stroke-linecap="round"><g transform="translate(1453.347117087718 477.38018095521966) rotate(0 -403.3513859408467 97.76139423232462)"><path d="M1.21 -0.25 C-56.1 39.72, -114.05 80.24, -256.18 188.61 M-1.27 0.37 C-81.79 63.78, -167.59 123.61, -256.95 188.55 M-256.88 187.1 C-469.11 187.9, -682.32 188.99, -807.91 195.77 M-256.57 189.08 C-385.44 191.38, -514.84 192.62, -807.73 194.47" stroke="#364fc7" stroke-width="1" fill="none"></path></g><g transform="translate(1453.347117087718 477.38018095521966) rotate(0 -403.3513859408467 97.76139423232462)"><path d="M-777.89 183.67 C-786.57 186.71, -794.93 187.8, -806.38 194.56 M-781.42 184.54 C-786.95 188.81, -799.75 190.51, -807.48 194.48" stroke="#364fc7" stroke-width="1" fill="none"></path></g><g transform="translate(1453.347117087718 477.38018095521966) rotate(0 -403.3513859408467 97.76139423232462)"><path d="M-777.75 204.19 C-786.6 202.73, -794.99 199.32, -806.38 194.56 M-781.28 205.06 C-786.88 202.69, -799.73 197.76, -807.48 194.48" stroke="#364fc7" stroke-width="1" fill="none"></path></g></g><mask id="mask-z4MH7Elho6B5CkMLDZ4_b"><rect x="0" y="0" fill="#fff" width="2361.272094888591" height="772.3082067693585"></rect><rect x="1125.905857634487" y="653.9274981042672" fill="#000" width="140.625" height="24" opacity="1"></rect></mask><g transform="translate(1125.9058576344871 653.9274981042672) rotate(0 -75.91012648761574 -78.78592291672294)"><text x="70.3125" y="0" font-family="Cascadia, Segoe UI Emoji" font-size="20px" fill="#364fc7" text-anchor="middle" style="white-space: pre;" direction="ltr" dominant-baseline="text-before-edge">Borrow/Repay</text></g><g stroke-linecap="round" transform="translate(934.0440238310514 10) rotate(0 182.42227570542548 54.933603709567706)"><path d="M1.14 -1.02 C146.24 -6.36, 288.46 -2.25, 362.48 -1.17 M1.03 0.02 C129.61 2.85, 257.11 3.26, 365.74 -0.71 M367.82 -2.56 C362.88 21.16, 362.04 42.39, 367.32 107.55 M364.94 0.29 C363.57 43.94, 365.53 86.78, 365.97 110.32 M364.21 107.62 C287.84 113.74, 208.58 109.73, 0.22 108.2 M365.56 110.91 C238.6 110.75, 109.82 112.72, -1.24 108.72 M3.3 112.2 C4.5 69.7, -0.15 39.93, 2.78 2.4 M1.15 109 C-1.89 86.4, -2.56 63.44, -1.68 0.19" stroke="#364fc7" stroke-width="1" fill="none"></path></g><g transform="translate(947.0746172873071 52.12018681091649) rotate(0 172.265625 16.800000000000182)"><text x="0" y="0" font-family="Cascadia, Segoe UI Emoji" font-size="28px" fill="#364fc7" text-anchor="start" style="white-space: pre;" direction="ltr" dominant-baseline="text-before-edge">VaultDeployerSelector</text></g><g transform="translate(730.8315359415532 22.74002952041701) rotate(0 70.3125 12)"><text x="0" y="0" font-family="Cascadia, Segoe UI Emoji" font-size="20px" fill="#364fc7" text-anchor="start" style="white-space: pre;" direction="ltr" dominant-baseline="text-before-edge">delegateCall</text></g><g stroke-linecap="round" transform="translate(1557.5156919378026 33.01468242390001) rotate(0 182.42227570542548 44.72630550216718)"><path d="M-0.54 1.87 L361.72 1.71 L368.27 92.46 L-1.57 90.81" stroke="none" stroke-width="0" fill="#ffffff"></path><path d="M0.26 -1.14 C84.93 -2.97, 172.1 -2.74, 364.96 0.6 M-0.2 -0.2 C117.12 0.13, 233.53 1.2, 364.2 0.41 M360.95 1.73 C368.52 26.06, 364 55.45, 362.49 91.39 M364.26 -1.25 C363.25 34.04, 364.78 66.06, 366.57 88.7 M365.86 89.93 C237.88 87.71, 104.88 87.99, 0.03 91.47 M363.71 90.25 C255.58 93.41, 144.55 94.21, -0.74 88.83 M-1.29 92.36 C-2.1 63.76, 3.73 45.26, -3.64 3.42 M-0.6 90.09 C0.51 71.57, -1.64 51.58, -1.63 -0.59" stroke="#364fc7" stroke-width="1" fill="none"></path></g><g transform="translate(1624.3823611488567 60.79017087217926) rotate(0 114.84375 16.800000000000182)"><text x="0" y="0" font-family="Cascadia, Segoe UI Emoji" font-size="28px" fill="#364fc7" text-anchor="start" style="white-space: pre;" direction="ltr" dominant-baseline="text-before-edge">VeloV2Deployer</text></g><g stroke-linecap="round"><g transform="translate(1312.3680089499019 79.68466567337146) rotate(0 113.26162724701555 -1.4488692737882047)"><path d="M2.07 -2.54 C77.56 -0.26, 150.13 -2.88, 225.81 -2.47 M0.72 -0.35 C58.17 -0.54, 119.59 -1.89, 223.97 -1.56" stroke="#364fc7" stroke-width="1" fill="none"></path></g><g transform="translate(1312.3680089499019 79.68466567337146) rotate(0 113.26162724701555 -1.4488692737882047)"><path d="M198.2 5.77 C206.97 7.26, 212.22 1.3, 225.13 -2.72 M196.62 8.32 C202.17 5.94, 212.28 2.12, 222.99 -1.65" stroke="#364fc7" stroke-width="1" fill="none"></path></g><g transform="translate(1312.3680089499019 79.68466567337146) rotate(0 113.26162724701555 -1.4488692737882047)"><path d="M198.18 -14.75 C206.66 -6.29, 211.92 -5.29, 225.13 -2.72 M196.6 -12.2 C202.05 -9.18, 212.16 -7.61, 222.99 -1.65" stroke="#364fc7" stroke-width="1" fill="none"></path></g></g><mask></mask><g transform="translate(1360.3021118832678 33.33182331714033) rotate(0 70.3125 12)"><text x="0" y="0" font-family="Cascadia, Segoe UI Emoji" font-size="20px" fill="#364fc7" text-anchor="start" style="white-space: pre;" direction="ltr" dominant-baseline="text-before-edge">delegateCall</text></g><g stroke-linecap="round" transform="translate(1454.8925646782775 353.9935868849243) rotate(0 262.518196686309 59.177595606084196)"><path d="M1.25 1.41 C161.42 -2.06, 319.85 -3.63, 524.91 0.24 M0.09 -0.71 C106.61 -3.54, 215.33 -3.05, 524.53 0.08 M524.46 3.97 C527.65 39.55, 529.39 73.57, 521.34 119.19 M523.62 -0.24 C523.1 26.63, 524.13 54.72, 524.01 118.87 M523.72 119.84 C325.45 120.78, 127.12 122.39, -0.45 117.98 M524.4 118.73 C328.82 120.64, 133.03 121.54, 0.66 118.59 M-3.82 115.03 C5.47 73.28, 2.61 31.3, 1.34 2.71 M-1.06 116.73 C-0.97 85.39, -1.44 49.68, -1.96 -0.05" stroke="#0b7285" stroke-width="1" fill="none"></path></g><g transform="translate(1478.956933797261 373.3946926975732) rotate(0 251.953125 36)"><text x="0" y="0" font-family="Cascadia, Segoe UI Emoji" font-size="20px" fill="#0b7285" text-anchor="start" style="white-space: pre;" direction="ltr" dominant-baseline="text-before-edge">contract VaultXXX is IVaultXXX {}</text><text x="0" y="24" font-family="Cascadia, Segoe UI Emoji" font-size="20px" fill="#0b7285" text-anchor="start" style="white-space: pre;" direction="ltr" dominant-baseline="text-before-edge"></text><text x="0" y="48" font-family="Cascadia, Segoe UI Emoji" font-size="20px" fill="#0b7285" text-anchor="start" style="white-space: pre;" direction="ltr" dominant-baseline="text-before-edge">IVaultXXX should compatible with IVeloVault</text></g><g transform="translate(1456.34040839564 308.87918703447394) rotate(0 52.734375 21.59999999999991)"><text x="0" y="0" font-family="Cascadia, Segoe UI Emoji" font-size="36px" fill="#0b7285" text-anchor="start" style="white-space: pre;" direction="ltr" dominant-baseline="text-before-edge">Vault</text></g><g stroke-linecap="round"><g transform="translate(1731.78788283051 133.91129147754418) rotate(0 -0.9552291894714244 77.50501102711314)"><path d="M-2.99 -1.55 C1 61.57, 2.79 112.63, -1.04 156.56 M0.37 1.24 C-1.09 51.54, -3.56 101.26, -0.67 154.61" stroke="#0b7285" stroke-width="1" fill="none"></path></g><g transform="translate(1731.78788283051 133.91129147754418) rotate(0 -0.9552291894714244 77.50501102711314)"><path d="M-14.71 125.18 C-6.85 140.68, -0.03 144.34, 0.63 157 M-11.35 127.96 C-7.46 136.98, -5.54 145.36, 0.99 155.05" stroke="#0b7285" stroke-width="1" fill="none"></path></g><g transform="translate(1731.78788283051 133.91129147754418) rotate(0 -0.9552291894714244 77.50501102711314)"><path d="M5.8 124.6 C5.97 140.66, 5.09 144.53, 0.63 157 M9.16 127.39 C6.33 136.5, 1.53 145.06, 0.99 155.05" stroke="#0b7285" stroke-width="1" fill="none"></path></g></g><mask></mask><g transform="translate(1753.9639536551697 198.74452660457246) rotate(0 35.15625 12)"><text x="0" y="0" font-family="Cascadia, Segoe UI Emoji" font-size="20px" fill="#0b7285" text-anchor="start" style="white-space: pre;" direction="ltr" dominant-baseline="text-before-edge">Deploy</text></g><g stroke-linecap="round" transform="translate(1449.2471452899206 290.079334441476) rotate(0 265.33847559408673 91.65453999115516)"><path d="M-0.96 -0.52 C143 2.01, 287.35 3.17, 531.69 1.39 M0.74 0.25 C182.83 0.26, 366.86 0.16, 530.13 -0.21 M526.93 3.76 C525.64 64.22, 529.35 128.53, 532.77 181.82 M530.79 -0.26 C529.27 57.45, 526.97 111.2, 530.81 181.87 M531.24 184.84 C374.09 182.4, 217.24 181.9, -0.35 184.71 M530.52 182.72 C360.91 184.57, 192.01 184.67, 0.49 183.69 M3.66 186.99 C-1.99 113.15, 0.69 48.47, 3.51 2.2 M0.32 182.11 C-4.12 124.09, -2.23 69.78, 0.62 0.59" stroke="#0b7285" stroke-width="1" fill="none"></path></g><g transform="translate(546.5708816542668 263.0046569268088) rotate(0 140.625 12)"><text x="0" y="0" font-family="Cascadia, Segoe UI Emoji" font-size="20px" fill="#364fc7" text-anchor="start" style="white-space: pre;" direction="ltr" dominant-baseline="text-before-edge">VaultId &lt;-&gt; VaultAddress</text></g><g stroke-linecap="round"><g transform="translate(62.44882194029867 672.3444966437128) rotate(0 147.47943997406654 -0.9359418322724196)"><path d="M2.18 -1.74 C117.1 1.17, 235.24 2.43, 294.6 -2.24 M-0.63 -1.01 C75.56 -2.33, 151.91 -3.93, 295.59 -1.38" stroke="#364fc7" stroke-width="1" fill="none"></path></g><g transform="translate(62.44882194029867 672.3444966437128) rotate(0 147.47943997406654 -0.9359418322724196)"><path d="M270.24 6.21 C278.64 3.36, 291.58 1.31, 292.32 -4 M266.43 7.19 C274.65 5.9, 283 1.32, 293.67 -2.83" stroke="#364fc7" stroke-width="1" fill="none"></path></g><g transform="translate(62.44882194029867 672.3444966437128) rotate(0 147.47943997406654 -0.9359418322724196)"><path d="M270.48 -14.31 C279.18 -9.09, 292.03 -3.07, 292.32 -4 M266.66 -13.33 C274.64 -9.4, 282.93 -8.77, 293.67 -2.83" stroke="#364fc7" stroke-width="1" fill="none"></path></g></g><mask></mask><g transform="translate(106.87952601683764 625.3197392402362) rotate(0 82.03125 12)"><text x="0" y="0" font-family="Cascadia, Segoe UI Emoji" font-size="20px" fill="#364fc7" text-anchor="start" style="white-space: pre;" direction="ltr" dominant-baseline="text-before-edge">deposit/redeem</text></g><g transform="translate(1714.5765718607738 523.9774794833002) rotate(0 187.5 9.599999999999909)"><text x="0" y="0" font-family="Cascadia, Segoe UI Emoji" font-size="16px" fill="#1971c2" text-anchor="start" style="white-space: pre;" direction="ltr" dominant-baseline="text-before-edge">swap / addLiquidity / withdrawLp / Stake</text></g></svg>